<svg width="15" height="18" viewBox="0 0 15 18" fill="none" xmlns="http://www.w3.org/2000/svg">
<path d="M13.125 14.625L9.375 10.875L13.125 14.625ZM10.625 7.75C10.625 8.32453 10.5118 8.89344 10.292 9.42424C10.0721 9.95504 9.74985 10.4373 9.34359 10.8436C8.93734 11.2498 8.45504 11.5721 7.92424 11.792C7.39344 12.0118 6.82453 12.125 6.25 12.125C5.67547 12.125 5.10656 12.0118 4.57576 11.792C4.04496 11.5721 3.56266 11.2498 3.15641 10.8436C2.75015 10.4373 2.42789 9.95504 2.20803 9.42424C1.98816 8.89344 1.875 8.32453 1.875 7.75C1.875 6.58968 2.33594 5.47688 3.15641 4.65641C3.97688 3.83594 5.08968 3.375 6.25 3.375C7.41032 3.375 8.52312 3.83594 9.34359 4.65641C10.1641 5.47688 10.625 6.58968 10.625 7.75Z" stroke="#94A3B8" stroke-width="1.25" stroke-linecap="round" stroke-linejoin="round"/>
</svg>
